<mxfile host="app.diagrams.net" agent="Mozilla/5.0 (Windows NT 10.0; Win64; x64) AppleWebKit/537.36 (KHTML, like Gecko) Chrome/139.0.0.0 Safari/537.36" version="28.2.0">
  <diagram name="Page-1" id="7ysAmsqfwt7qHdR9JgGF">
    <mxGraphModel dx="2086" dy="1752" grid="1" gridSize="10" guides="1" tooltips="1" connect="1" arrows="1" fold="1" page="1" pageScale="1" pageWidth="850" pageHeight="1100" math="0" shadow="0">
      <root>
        <mxCell id="0" />
        <mxCell id="1" parent="0" />
        <mxCell id="1GdPF0PRqvau0uIFLc1I-1" value="" style="whiteSpace=wrap;html=1;rounded=0;shadow=0;labelBackgroundColor=none;strokeWidth=1;fontFamily=Verdana;fontSize=12;align=center;comic=1;" vertex="1" parent="1">
          <mxGeometry x="-110" y="-180" width="1060" height="810" as="geometry" />
        </mxCell>
        <mxCell id="1GdPF0PRqvau0uIFLc1I-2" value="LOGO/header" style="whiteSpace=wrap;html=1;rounded=0;shadow=0;labelBackgroundColor=none;strokeWidth=1;fontFamily=Verdana;fontSize=28;align=center;comic=1;" vertex="1" parent="1">
          <mxGeometry x="-90" y="-140" width="650" height="50" as="geometry" />
        </mxCell>
        <mxCell id="1GdPF0PRqvau0uIFLc1I-3" value="Search" style="strokeWidth=1;shadow=0;dashed=0;align=center;html=1;shape=mxgraph.mockup.forms.searchBox;strokeColor=#999999;mainText=;strokeColor2=#008cff;fontColor=#666666;fontSize=17;align=left;spacingLeft=3;rounded=0;labelBackgroundColor=none;comic=1;" vertex="1" parent="1">
          <mxGeometry x="710" y="-105" width="220" height="30" as="geometry" />
        </mxCell>
        <mxCell id="1GdPF0PRqvau0uIFLc1I-4" value="Sign in/Register" style="text;html=1;points=[];align=left;verticalAlign=top;spacingTop=-4;fontSize=14;fontFamily=Verdana" vertex="1" parent="1">
          <mxGeometry x="760" y="-160" width="130" height="20" as="geometry" />
        </mxCell>
        <mxCell id="1GdPF0PRqvau0uIFLc1I-5" value="" style="whiteSpace=wrap;html=1;rounded=0;shadow=0;labelBackgroundColor=none;strokeWidth=1;fillColor=none;fontFamily=Verdana;fontSize=12;align=center;comic=1;" vertex="1" parent="1">
          <mxGeometry x="-100" y="30" width="200" height="590" as="geometry" />
        </mxCell>
        <mxCell id="1GdPF0PRqvau0uIFLc1I-6" value="" style="line;strokeWidth=1;html=1;rounded=0;shadow=0;labelBackgroundColor=none;fillColor=none;fontFamily=Verdana;fontSize=14;fontColor=#000000;align=center;comic=1;" vertex="1" parent="1">
          <mxGeometry x="-110" y="-60" width="1060" height="10" as="geometry" />
        </mxCell>
        <mxCell id="1GdPF0PRqvau0uIFLc1I-7" value="" style="whiteSpace=wrap;html=1;rounded=0;shadow=0;labelBackgroundColor=none;strokeWidth=1;fillColor=none;fontFamily=Verdana;fontSize=12;align=center;comic=1;" vertex="1" parent="1">
          <mxGeometry x="-100" y="-40" width="1040" height="50" as="geometry" />
        </mxCell>
        <mxCell id="1GdPF0PRqvau0uIFLc1I-8" value="Character Page" style="text;html=1;points=[];align=left;verticalAlign=top;spacingTop=-4;fontSize=14;fontFamily=Verdana" vertex="1" parent="1">
          <mxGeometry x="40" y="-25" width="110" height="20" as="geometry" />
        </mxCell>
        <mxCell id="1GdPF0PRqvau0uIFLc1I-9" value="Wishlist" style="text;html=1;points=[];align=left;verticalAlign=top;spacingTop=-4;fontSize=14;fontFamily=Verdana" vertex="1" parent="1">
          <mxGeometry x="260" y="-25" width="60" height="20" as="geometry" />
        </mxCell>
        <mxCell id="1GdPF0PRqvau0uIFLc1I-10" value="Discussion" style="text;html=1;points=[];align=left;verticalAlign=top;spacingTop=-4;fontSize=14;fontFamily=Verdana" vertex="1" parent="1">
          <mxGeometry x="450" y="-25" width="80" height="20" as="geometry" />
        </mxCell>
        <mxCell id="1GdPF0PRqvau0uIFLc1I-11" value="Tips/Links" style="text;html=1;points=[];align=left;verticalAlign=top;spacingTop=-4;fontSize=14;fontFamily=Verdana" vertex="1" parent="1">
          <mxGeometry x="660" y="-25" width="80" height="20" as="geometry" />
        </mxCell>
        <mxCell id="1GdPF0PRqvau0uIFLc1I-12" value="&lt;div style=&quot;text-align: justify&quot;&gt;Weekly/Monthly update section to go with image associated with the update.&amp;nbsp;&lt;/div&gt;" style="whiteSpace=wrap;html=1;rounded=0;shadow=0;labelBackgroundColor=none;strokeWidth=1;fillColor=none;fontFamily=Verdana;fontSize=12;align=center;verticalAlign=top;spacing=10;comic=1;" vertex="1" parent="1">
          <mxGeometry x="120" y="440" width="580" height="180" as="geometry" />
        </mxCell>
        <mxCell id="1GdPF0PRqvau0uIFLc1I-13" value="ttt" style="verticalLabelPosition=bottom;shadow=0;dashed=0;align=center;html=1;verticalAlign=top;strokeWidth=1;shape=mxgraph.mockup.graphics.simpleIcon;rounded=0;labelBackgroundColor=none;fontFamily=Verdana;fontSize=14;comic=1;" vertex="1" parent="1">
          <mxGeometry x="120" y="30" width="580" height="400" as="geometry" />
        </mxCell>
        <mxCell id="1GdPF0PRqvau0uIFLc1I-14" value="" style="whiteSpace=wrap;html=1;rounded=0;shadow=0;labelBackgroundColor=none;strokeWidth=1;fillColor=none;fontFamily=Verdana;fontSize=12;align=center;comic=1;" vertex="1" parent="1">
          <mxGeometry x="710" y="30" width="230" height="590" as="geometry" />
        </mxCell>
        <mxCell id="1GdPF0PRqvau0uIFLc1I-15" value="Quick Tips section" style="text;html=1;points=[];align=center;verticalAlign=top;spacingTop=-4;fontSize=14;fontFamily=Verdana" vertex="1" parent="1">
          <mxGeometry x="-90" y="50" width="170" height="20" as="geometry" />
        </mxCell>
        <mxCell id="1GdPF0PRqvau0uIFLc1I-16" value="Tip #1" style="text;html=1;points=[];align=left;verticalAlign=top;spacingTop=-4;fontSize=14;fontFamily=Verdana" vertex="1" parent="1">
          <mxGeometry x="-90" y="120" width="170" height="20" as="geometry" />
        </mxCell>
        <mxCell id="1GdPF0PRqvau0uIFLc1I-17" value="Tip #2" style="text;html=1;points=[];align=left;verticalAlign=top;spacingTop=-4;fontSize=14;fontFamily=Verdana" vertex="1" parent="1">
          <mxGeometry x="-90" y="200" width="170" height="20" as="geometry" />
        </mxCell>
        <mxCell id="1GdPF0PRqvau0uIFLc1I-18" value="Tip #3" style="text;html=1;points=[];align=left;verticalAlign=top;spacingTop=-4;fontSize=14;fontFamily=Verdana" vertex="1" parent="1">
          <mxGeometry x="-90" y="280" width="170" height="20" as="geometry" />
        </mxCell>
        <mxCell id="1GdPF0PRqvau0uIFLc1I-19" value="Tip #4" style="text;html=1;points=[];align=left;verticalAlign=top;spacingTop=-4;fontSize=14;fontFamily=Verdana" vertex="1" parent="1">
          <mxGeometry x="-90" y="360" width="170" height="20" as="geometry" />
        </mxCell>
        <mxCell id="1GdPF0PRqvau0uIFLc1I-20" value="Tip #5" style="text;html=1;points=[];align=left;verticalAlign=top;spacingTop=-4;fontSize=14;fontFamily=Verdana" vertex="1" parent="1">
          <mxGeometry x="-90" y="440" width="170" height="20" as="geometry" />
        </mxCell>
        <mxCell id="1GdPF0PRqvau0uIFLc1I-21" value="Hot topics!" style="text;html=1;points=[];align=center;verticalAlign=top;spacingTop=-4;fontSize=14;fontFamily=Verdana" vertex="1" parent="1">
          <mxGeometry x="735" y="50" width="170" height="20" as="geometry" />
        </mxCell>
        <mxCell id="1GdPF0PRqvau0uIFLc1I-22" value="Topic #1" style="text;html=1;points=[];align=left;verticalAlign=top;spacingTop=-4;fontSize=14;fontFamily=Verdana" vertex="1" parent="1">
          <mxGeometry x="730" y="120" width="170" height="20" as="geometry" />
        </mxCell>
        <mxCell id="1GdPF0PRqvau0uIFLc1I-23" value="Topic #2" style="text;html=1;points=[];align=left;verticalAlign=top;spacingTop=-4;fontSize=14;fontFamily=Verdana" vertex="1" parent="1">
          <mxGeometry x="730" y="200" width="170" height="20" as="geometry" />
        </mxCell>
        <mxCell id="1GdPF0PRqvau0uIFLc1I-24" value="Topic #3" style="text;html=1;points=[];align=left;verticalAlign=top;spacingTop=-4;fontSize=14;fontFamily=Verdana" vertex="1" parent="1">
          <mxGeometry x="730" y="280" width="170" height="20" as="geometry" />
        </mxCell>
        <mxCell id="1GdPF0PRqvau0uIFLc1I-25" value="Topic #4" style="text;html=1;points=[];align=left;verticalAlign=top;spacingTop=-4;fontSize=14;fontFamily=Verdana" vertex="1" parent="1">
          <mxGeometry x="730" y="360" width="170" height="20" as="geometry" />
        </mxCell>
        <mxCell id="1GdPF0PRqvau0uIFLc1I-26" value="Topic #5" style="text;html=1;points=[];align=left;verticalAlign=top;spacingTop=-4;fontSize=14;fontFamily=Verdana" vertex="1" parent="1">
          <mxGeometry x="730" y="440" width="170" height="20" as="geometry" />
        </mxCell>
        <mxCell id="1GdPF0PRqvau0uIFLc1I-27" style="edgeStyle=orthogonalEdgeStyle;rounded=0;orthogonalLoop=1;jettySize=auto;html=1;exitX=0.5;exitY=1;exitDx=0;exitDy=0;" edge="1" parent="1" source="1GdPF0PRqvau0uIFLc1I-14" target="1GdPF0PRqvau0uIFLc1I-14">
          <mxGeometry relative="1" as="geometry" />
        </mxCell>
      </root>
    </mxGraphModel>
  </diagram>
</mxfile>
